<svg id="svg" version="1.1" xmlns="http://www.w3.org/2000/svg" xmlns:xlink="http://www.w3.org/1999/xlink" width="400" height="66.66666666666667" viewBox="0, 0, 400,66.66666666666667"><g id="svgg"><path id="path0" d="M268.833 33.333 L 268.833 66.667 302.167 66.667 L 335.500 66.667 335.500 33.333 L 335.500 0.000 302.167 0.000 L 268.833 0.000 268.833 33.333 " stroke="none" fill="#0404fc" fill-rule="evenodd"></path><path id="path1" d="M0.000 33.333 L 0.000 66.667 34.417 66.667 L 68.833 66.667 68.833 33.333 L 68.833 0.000 34.417 0.000 L 0.000 0.000 0.000 33.333 " stroke="none" fill="#fc0404" fill-rule="evenodd"></path><path id="path2" d="M202.167 33.333 L 202.167 66.667 235.500 66.667 L 268.833 66.667 268.833 33.333 L 268.833 0.000 235.500 0.000 L 202.167 0.000 202.167 33.333 " stroke="none" fill="#04fcfc" fill-rule="evenodd"></path><path id="path3" d="M135.500 33.333 L 135.500 66.667 168.833 66.667 L 202.167 66.667 202.167 33.333 L 202.167 0.000 168.833 0.000 L 135.500 0.000 135.500 33.333 " stroke="none" fill="#04fc04" fill-rule="evenodd"></path><path id="path4" d="M335.500 33.333 L 335.500 66.667 367.750 66.667 L 400.000 66.667 400.000 33.333 L 400.000 0.000 367.750 0.000 L 335.500 0.000 335.500 33.333 " stroke="none" fill="#fc04fc" fill-rule="evenodd"></path><path id="path5" d="M68.833 33.333 L 68.833 66.667 102.167 66.667 L 135.500 66.667 135.500 33.333 L 135.500 0.000 102.167 0.000 L 68.833 0.000 68.833 33.333 " stroke="none" fill="#fcfc04" fill-rule="evenodd"></path></g></svg>